<?xml version="1.0" encoding="UTF-8"?>
<svg id="Layer_1" xmlns="http://www.w3.org/2000/svg" viewBox="0 0 455.83 128.23">
  <defs>
    <style>
      .cls-1 {
        fill: #f68229;
      }

      .cls-2 {
        fill: #263b4e;
      }

      .cls-3 {
        fill: #182b3f;
      }

      .cls-4 {
        fill: #199acf;
      }

      .cls-5 {
        fill: #f58f2b;
      }

      .cls-6 {
        fill: #43e1f5;
      }

      .cls-7 {
        fill: #c7cb42;
      }

      .cls-8 {
        fill: #e8f1f2;
      }

      .cls-9 {
        fill: #74bd6a;
      }

      .cls-10 {
        fill: #9ac559;
      }

      .cls-11 {
        fill: #4db177;
      }

      .cls-12 {
        fill: #f3c033;
      }

      .cls-13 {
        fill: #0d2036;
      }

      .cls-14 {
        fill: #1676af;
      }

      .cls-15 {
        fill: #3bddf2;
      }

      .cls-16 {
        fill: #25c2e5;
      }

      .cls-17 {
        fill: #35cfea;
      }

      .cls-18 {
        fill: #e9f7fa;
      }

      .cls-19 {
        fill: #1aa9da;
      }

      .cls-20 {
        fill: #19a5d7;
      }

      .cls-21 {
        fill: #74c07d;
      }

      .cls-22 {
        fill: #23c1e5;
      }

      .cls-23 {
        fill: #fc6633;
      }

      .cls-24 {
        fill: #2cbcde;
      }

      .cls-25 {
        fill: #c9d8e2;
      }

      .cls-26 {
        fill: #f87728;
      }

      .cls-27 {
        fill: #f5f6f7;
      }
    </style>
  </defs>
  <path class="cls-13" d="M106.99,67.12c3.75,11.75-1.45,20.37-12.68,22.2.48,3.56,2.39,7.86,1.02,10.36-1.27,2.33-6.02,2.75-9.75,4.21.93,3.24-1.68,5.76-5.41,7.76-.67.36-.91,1.56-1.29,2.39-.71,1.57-1,4.15-2.11,4.55-4.75,1.73-6.47,5.96-8.93,9.61h-19.96c-1.8-2.11-3.59-4.22-5.9-6.92-9.55.22-16.59-6.12-23.35-12.98.89-.09,1.77-.17,2.66-.26,3.01,2.05,5.76,4.83,9.08,5.98,4.78,1.66,10.34,3.7,14.86,2.62,3.65-.88,7.79-5.68,8.93-9.56,1.38-4.69,4.65-6.91,7.39-10.01,1.24.42,2.48.84,3.71,1.26-2.53,2.66-5.07,5.32-8.06,8.46,4.75.76,7.83.46,8.59-4.57.17-1.13,2.02-2.94,2.97-2.87,4.17.34,5.85-2.4,8.03-5.1,2.3-2.85,3.65-7.56,8.96-6.22,1.3-.83,2.63-2.42,3.9-2.38,11.38.42,15.65-3.9,14.9-15.47-.1-.62-.19-1.23-.29-1.85.9-.42,1.81-.83,2.71-1.25ZM46.67,122.16l1.56,1.7c1.7-1.33,4.24-2.32,4.95-4.06,2.32-5.64,6.22-4.91,10.88-4.04,3.37.63,6.95.12,10.43.12.18-.63.37-1.27.55-1.9-1.88-.92-3.72-2.5-5.66-2.64-4.77-.36-9.59-.06-14.39-.02-.49,0-1.23-.05-1.41.22-2.35,3.51-4.62,7.07-6.91,10.62ZM66.54,104.61c.13.64.27,1.27.4,1.91,4.4.19,8.79.44,13.18.41.19,0,.63-3.67.49-3.7-3.29-.78-6.65-1.67-9.99-1.69-1.36,0-2.72,1.99-4.08,3.07ZM81.48,95.37c-.17.53-.33,1.06-.5,1.6,2.85.42,5.69,1.07,8.55,1.15.93.02,1.9-1.45,2.85-2.24-1.43-1.17-2.93-3.37-4.26-3.28-2.27.16-4.43,1.77-6.64,2.78Z"/>
  <path class="cls-10" d="M0,56.23c1.17-3.97,2.26-7.96,3.54-11.89.6-1.82,1.57-3.52,2.38-5.28,1.44.41,2.88.81,4.32,1.22-1.51,9.32-.38,11.23,7.79,13.23-.04.25-.03.5,0,.76-1.39,1.37-2.77,2.74-4.16,4.1-1.92.95-3.85,1.89-5.77,2.84C5.41,61.54,2.7,61.88,0,62.23,0,60.23,0,58.23,0,56.23Z"/>
  <path class="cls-9" d="M0,62.23c2.7-.34,5.41-.69,8.11-1.03,1.29,1.67,2.58,3.35,3.87,5.02-1.34,5.59-5.42,7.53-10.61,7.98C.92,73.2.46,72.21,0,71.23c0-3,0-6,0-9Z"/>
  <path class="cls-3" d="M18.66,108.32c-1.59-1.97-3.19-3.95-4.78-5.92,2.02-2.38,4.04-4.75,6.06-7.13.03-.32.06-.64.09-.96l-.06.09c1.15-1.67,3.27-3.33,3.3-5.03.27-14.23.15-28.46.15-43.39-3.36,2.39-6.38,5.87-9.41,1.88-2.86-3.77,1.06-5.93,3.35-8.11C30.58,27.19,43.84,14.66,57.15,2.17c1.02-.96,2.47-1.46,3.73-2.17,1.65.98,3.5,1.72,4.9,2.97,5.15,4.62,10.15,9.42,16.09,14.97,0-2.28.16-3.38-.03-4.42-.94-5.25,1.38-6.52,6.35-6.32,4.36.17,6.69,1.05,5.83,5.9-1.96,10.98,1.29,19.78,10.87,25.94,1.09.7,2.34,1.69,2.75,2.83.67,1.89.73,4,1.04,6.02-2.09.07-4.2.31-6.27.12-.77-.07-1.45-1.15-2.7-2.22-.16,3.08-.29,5.49-.45,8.52-1.51,0-3.05,0-4.59,0-.12-2-.25-4.01-.37-6.01.05-1.34.11-2.69.16-4.03,0-.8.37-1.97-.02-2.35-6.73-6.63-13.56-13.16-20.37-19.71-3.05-3.04-6.21-5.99-9.12-9.17-2.3-2.51-4.14-2.53-6.63-.15-9.24,8.85-18.66,17.51-27.91,26.35-1.05,1-1.45,2.68-2.15,4.05-.02,5.64-.05,11.28-.07,16.91,0,3,0,6,0,8.99,0,2.66-.01,5.33-.02,7.99v8.22c5.11-2.88,9.94-5.6,14.76-8.32,7.31-.68,14.61-1.37,21.92-2.05.72-.25,1.44-.51,2.16-.76h8.15c2.21-5.02,3.96-8.99,5.71-12.96l.06-.06c1.4-.93,2.81-1.87,4.21-2.8,7.57-3.44,15.5-.93,20.24,4.8.85,1.03,1.09,2.56,1.61,3.86-.9.42-1.81.83-2.71,1.25-4.08-6.92-10.31-9.52-16.43-6.85-6.27,2.73-8.47,8.69-6.37,16.71.27,1.03-.02,2.65-.7,3.4-5.07,5.66-10.31,11.17-15.49,16.73-1.24-.42-2.48-.84-3.71-1.26,1.44-1.92,2.87-3.85,4.47-5.99-6.2-.32-11.75-.5-14.1,6.46-.43,1.28-1.95,2.21-3.01,3.26-4.13,4.08-10.85,5.42-14.81,2.95,8.43-2.96,16.85-5.91,18.07-16.56,19.03-.69,22.01-1.88,22.19-8.64-6.38.37-12.78,1.2-19.14,1-8.12-.27-15.26,2.08-21.06,7.36-4.99,4.53-9.04,10.09-13.61,15.09-2.22,2.43-1.7,4.29.74,6.03-.89.09-1.77.17-2.66.26Z"/>
  <path class="cls-22" d="M215.19,65.16c2.78,2.04,4.46,5.69,2.54,10.41-1.87,4.6-5.86,5.55-10.19,5.62-5.93.1-11.86.02-17.47.02v-31.92c7.74,0,14.85-.4,21.86.24,2.14.2,5.37,3.09,5.67,5.11.44,2.96-1.31,6.24-2.41,10.5ZM198.8,76.2c3.81-1.18,6.72-1.84,9.34-3.1.56-.27.53-3.77,0-3.99-2.64-1.14-5.54-1.69-8.89-2.59-.16,3.45-.27,5.71-.45,9.68ZM199.79,62.28c3.34-1.21,5.85-2.04,8.25-3.13.28-.13.09-2.47-.23-2.56-2.51-.72-5.11-1.15-8.01-1.73v7.42Z"/>
  <path class="cls-16" d="M406.57,56.65c3.57.67,6.5,1.35,9.47,1.71.93.11,1.99-.54,2.94-.96,8.69-3.86,14.7.34,14.25,9.84-.21,4.45-.04,8.92-.04,13.68h-9.92c.22-4,.77-7.8.49-11.54-.13-1.75-1.89-3.37-2.91-5.05-1.66,1.32-4.32,2.37-4.79,4.03-1.09,3.92-1.14,8.13-1.65,12.55h-9.21c.43-7.72.86-15.41,1.35-24.26Z"/>
  <path class="cls-16" d="M387.44,56.22c8.12.1,13.68,5.34,13.55,12.78-.14,8.21-5.95,13.4-14.83,13.24-8.19-.15-13.76-5.33-13.68-12.73.08-7.87,6.3-13.4,14.95-13.29ZM392.23,68.01c-1.65-1.58-3.16-4.29-4.98-4.51-4-.5-5.03,2.78-5.12,6.21-.08,3.02,1.08,5.38,4.33,5.41,3.88.03,4.61-2.98,5.77-7.11Z"/>
  <path class="cls-16" d="M274.78,82.23c-8.48-.02-14.22-5.27-14.05-12.85.17-7.71,6.16-13.13,14.57-13.17,8.18-.04,13.84,5,13.93,12.4.1,8.22-5.66,13.64-14.45,13.62ZM281.69,68.45c-3.03-2.39-4.74-4.85-6.59-4.97-3.68-.24-4.65,2.91-4.72,6.14-.07,3.24,1.34,6.12,4.68,5.31,2.15-.52,3.71-3.48,6.64-6.48Z"/>
  <path class="cls-16" d="M308.69,57.47h9.12c-.22,4.2-.71,8.16-.49,12.08.09,1.57,1.73,3.06,2.66,4.59,1.5-1.25,3.96-2.27,4.33-3.79.95-3.99.99-8.2,1.43-12.73h8.93c-.36,7.69-.72,15.41-1.13,24.1-3.36-.62-6.25-1.28-9.18-1.63-.92-.11-1.97.57-2.91,1-8.25,3.73-14.37-.49-13.71-9.47.34-4.61.63-9.23.96-14.15Z"/>
  <path class="cls-22" d="M130.24,49.48h24.92v6.55h-14.34c-.13,2.21-.22,3.92-.34,6.04h11.6v7.07h-12.18v11.71h-9.67v-31.37Z"/>
  <path class="cls-22" d="M257.39,55.81c-3.97-.23-6.5-.8-8.87-.39-2.82.49-4.16,2.37-1.62,4.9,2,1.99,4.35,3.62,6.36,5.6,5.77,5.65,4.1,13.54-3.75,15.35-4.63,1.07-9.71.2-14.77.2-.29-2.51-.51-4.46-.78-6.82,2.9.2,5.64.59,8.36.48,1.32-.06,3.22-.78,3.69-1.76.39-.82-.64-2.71-1.53-3.68-2.24-2.45-4.97-4.46-7.11-6.97-3.59-4.22-2.67-10.83,2.43-12.55,4.47-1.51,9.67-1.26,14.49-.93,1.05.07,1.86,3.81,3.1,6.59Z"/>
  <path class="cls-22" d="M166.69,56.34h-9.7v-6.82h29.38v6.52h-9.92c-.41,8.54-.79,16.57-1.19,24.88h-9.88c.43-8.04.85-15.92,1.31-24.59Z"/>
  <path class="cls-23" d="M122.95,73.3c-2.02,14.75-9.05,26.71-20.07,36.85-.73-3.93-1.78-7.41-1.91-10.92-.13-3.84-.21-7.76,3.93-10.46,4.71-3.06,6.54-8.17,7.5-13.55,3.52-.64,7.03-1.28,10.55-1.92Z"/>
  <path class="cls-16" d="M350.69,56.95c1.84.2,3.29.37,4.9.54v5.34c-1.74.24-3.3.45-4.83.66-1.72,9.71-1.27,11.02,4.2,12.19.85,4.42-1.05,6.4-5.48,6.58-5.86.23-8.84-1.5-8.98-6.12-.12-3.97.39-7.97.59-11.34-1.41-1.54-3.04-2.55-3.4-3.9-.52-1.97.01-4.04,2.96-3.88.3.02.92-.62.93-.97.18-5.95,5.08-4.28,8.62-5.65.17,2.3.32,4.23.49,6.55Z"/>
  <path class="cls-16" d="M455.75,61.91c-2.77.6-5.32,1.15-7.86,1.69,1.63,1.89,3.15,3.9,4.93,5.64,4.97,4.9,3.7,10.65-3.15,12.28-3.27.78-6.99.77-10.25.01-1.57-.36-2.55-3.27-3.79-5.02.33-.33.66-.65.98-.98,1.91.23,3.82.65,5.72.6,1.19-.03,2.35-.77,3.53-1.19-.54-1.08-.88-2.32-1.65-3.2-1.08-1.23-2.56-2.11-3.72-3.28-4.38-4.42-2.91-10.46,3.21-11.67,3.76-.74,7.79-.14,12.04-.14v5.25Z"/>
  <path class="cls-26" d="M122.95,73.3c-3.52.64-7.03,1.28-10.55,1.92,0-6.52-1.89-12.31-6.65-16.95,2.75-2.52,5.39-5.16,8.28-7.52,2.14-1.74,4.58-3.11,6.89-4.64,0,0-.07-.04-.07-.04.2.37.4.75.61,1.12,2.65,8.58,3.06,17.29,1.5,26.12Z"/>
  <path class="cls-16" d="M292.51,80.86c.53-10.6,1.05-20.95,1.58-31.46h9.31c-.5,10.46-.98,20.77-1.49,31.46h-9.4Z"/>
  <path class="cls-4" d="M94.29,48.28c.12,2,.25,4.01.37,6.01-3.61,1-7.22,2.01-10.83,3.01-.97,1.32-1.93,2.64-2.9,3.96,0,0-.06.06-.06.06-1.75,1.82-4.39,3.38-5.05,5.54-1.1,3.61-2.73,5.72-6.49,6.21-.82.11-1.56.79-2.33,1.21-.72.25-1.44.51-2.16.76-2.37-.91-4.75-1.82-7.17-2.75-.24-2.15-.52-4.68-.8-7.21,11.55.78,20.74-2.93,26.14-13.84,1.8-.27,3.64-.37,5.39-.84,2.01-.54,3.93-1.39,5.89-2.11Z"/>
  <path class="cls-22" d="M359.53,57.49h8.95v23.35h-9.99c.34-7.68.69-15.38,1.05-23.35Z"/>
  <path class="cls-1" d="M120.92,46.1c-2.31,1.53-4.75,2.9-6.89,4.64-2.88,2.35-5.53,5-8.28,7.52-1.15-1.43-2.29-2.86-4.19-5.23,2.85-.19,4.35.14,5.29-.44,2.25-1.39,5.27-2.83,6.03-4.95.76-2.12-.21-5.52-1.59-7.58-1.98-2.94-5.01-5.17-7.59-7.7,3.06-1.12,6.11-2.24,9.17-3.36,2.68,5.7,5.36,11.4,8.05,17.1Z"/>
  <path class="cls-5" d="M112.87,29.01c-3.06,1.12-6.11,2.24-9.17,3.36-8.03-4.49-5.26-12.1-5.68-18.78.42-.32.83-.63,1.25-.95,4.53,5.46,9.07,10.92,13.6,16.38Z"/>
  <path class="cls-14" d="M94.88,116.42c-4.81,3.05-9.56,6.25-16.7,6.53,4.06-5.96,7.2-11.05,10.9-15.69,1.07-1.34,3.78-1.38,5.74-2.01.02,3.72.04,7.44.06,11.16Z"/>
  <path class="cls-3" d="M94.88,116.42c-.02-3.72-.04-7.44-.06-11.16,1.23-1.02,2.45-2.03,3.68-3.05-.69,4.95,3.99,11.22-3.62,14.21Z"/>
  <path class="cls-16" d="M359.86,53.85v-5.27h8.98v5.27h-8.98Z"/>
  <path class="cls-5" d="M70.2.78c3.58.58,7.17,1.15,11.28,1.81-1.62,1.95-2.91,3.49-4.51,5.41-2.26-2.04-4.61-4.16-6.95-6.28.06-.31.13-.62.19-.94Z"/>
  <path class="cls-25" d="M80.93,61.27c.97-1.32,1.93-2.64,2.9-3.96.44.39.88.77,1.32,1.16-1.4.93-2.81,1.87-4.21,2.8Z"/>
  <path class="cls-1" d="M121.46,47.18c-.2-.37-.4-.74-.61-1.12.2.37.4.74.61,1.12Z"/>
  <path class="cls-7" d="M10.25,40.27c-1.44-.41-2.88-.81-4.32-1.22,5.84-14.14,15.03-25.25,28.97-32.05,1.35,2.08,2.71,4.16,4.06,6.23-9.57,9.01-19.13,18.02-28.7,27.03Z"/>
  <path class="cls-11" d="M19.93,95.28c-2.02,2.37-4.04,4.75-6.06,7.13-6-7.01-9.32-15.33-11.66-24.12,2.05-.59,4.1-1.18,6.16-1.78,3.69-1.06,7.39-2.12,11.08-3.18.17,7.03.34,14.06.51,21.09,0,0,.06-.09.06-.09-.03.32-.06.64-.09.96Z"/>
  <path class="cls-12" d="M38.95,13.24c-1.35-2.08-2.71-4.16-4.06-6.23,5.35-2.21,10.7-4.42,16.05-6.63.31.54.61,1.08.92,1.61-4.3,3.75-8.61,7.5-12.91,11.25Z"/>
  <path class="cls-21" d="M19.46,73.32c-3.69,1.06-7.39,2.12-11.08,3.18-2.05.59-4.1,1.18-6.16,1.78-.28-1.36-.56-2.73-.84-4.09,5.19-.45,9.27-2.39,10.61-7.98.52-.19,1.05-.38,1.57-.57,1.46.87,2.93,1.74,4.39,2.6l1.49,1.88c0,1.07,0,2.13.01,3.2Z"/>
  <path class="cls-9" d="M17.95,68.25c-1.46-.87-2.93-1.74-4.39-2.6.98-1.35,1.97-2.7,2.97-4.08-.81-.99-1.73-2.1-2.65-3.21,1.39-1.37,2.77-2.74,4.16-4.1.52,0,1.03-.02,1.55-.03-.07,4.69-.14,9.37-.2,14.06-.48-.01-.96-.02-1.44-.03Z"/>
  <path class="cls-11" d="M17.95,68.25c.48,0,.96.02,1.44.03.02.62.04,1.23.06,1.85-.5-.63-1-1.25-1.5-1.88Z"/>
  <path class="cls-21" d="M19.59,54.22c-.52,0-1.03.02-1.55.03-.04-.25-.04-.5,0-.76.34-.23.67-.45,1.01-.68.18.47.36.94.54,1.41Z"/>
  <path class="cls-27" d="M21.31,108.07c-2.44-1.74-2.96-3.6-.74-6.03,4.57-5.01,8.62-10.56,13.61-15.09,5.81-5.28,12.95-7.62,21.06-7.36,6.36.21,12.76-.63,19.14-1-.18,6.76-3.16,7.94-22.19,8.64-1.22,10.64-9.65,13.6-18.07,16.56,3.96,2.46,10.68,1.13,14.81-2.95,1.06-1.05,2.58-1.98,3.01-3.26,2.35-6.96,7.9-6.78,14.1-6.46-1.6,2.15-3.04,4.07-4.47,5.99-2.73,3.1-6,5.32-7.39,10.01-1.15,3.88-5.28,8.69-8.93,9.56-4.52,1.08-10.08-.96-14.86-2.62-3.32-1.15-6.07-3.93-9.08-5.98Z"/>
  <path class="cls-27" d="M65.29,98.36c5.18-5.56,10.42-11.07,15.49-16.73.68-.76.97-2.38.7-3.4-2.1-8.02.1-13.97,6.37-16.71,6.12-2.66,12.35-.07,16.43,6.85.1.62.19,1.23.29,1.85-2.17,7.03-7.61,10.28-14.14,12.22-2.86.85-5.29,1.93-4.65,5.63-5.31-1.34-6.65,3.37-8.96,6.22-2.19,2.7-3.86,5.44-8.03,5.1-.95-.08-2.8,1.73-2.97,2.87-.76,5.03-3.84,5.33-8.59,4.57,2.99-3.14,5.52-5.8,8.06-8.46ZM95.68,64.26c-.81.03-1.63.06-2.44.09-1.16,1.98-3.52,4.22-3.16,5.87.41,1.9,3.24,3.26,5.01,4.86,1.5-1.71,4.12-3.37,4.2-5.15.08-1.83-2.3-3.78-3.61-5.67Z"/>
  <path class="cls-8" d="M46.67,122.16c2.29-3.55,4.56-7.11,6.91-10.62.18-.27.93-.22,1.41-.22,4.8-.05,9.62-.34,14.39.02,1.94.15,3.78,1.72,5.66,2.64-.18.63-.37,1.27-.55,1.9-3.48,0-7.06.51-10.43-.12-4.66-.87-8.56-1.6-10.88,4.04-.71,1.74-3.25,2.73-4.95,4.06l-1.56-1.7Z"/>
  <path class="cls-25" d="M85.78,88.07c-.64-3.7,1.79-4.78,4.65-5.63,6.53-1.94,11.98-5.19,14.14-12.22.76,11.57-3.52,15.89-14.9,15.47-1.27-.05-2.6,1.55-3.9,2.38Z"/>
  <path class="cls-8" d="M66.54,104.61c1.36-1.08,2.73-3.08,4.08-3.07,3.35.02,6.7.91,9.99,1.69.13.03-.31,3.7-.49,3.7-4.39.03-8.79-.21-13.18-.41-.13-.64-.27-1.27-.4-1.91Z"/>
  <path class="cls-8" d="M81.48,95.37c2.21-1,4.37-2.62,6.64-2.78,1.34-.1,2.84,2.11,4.26,3.28-.95.79-1.92,2.26-2.85,2.24-2.86-.07-5.7-.72-8.55-1.15.17-.53.33-1.06.5-1.6Z"/>
  <path class="cls-27" d="M13.88,58.36c.92,1.11,1.83,2.22,2.65,3.21-1.01,1.38-1.99,2.73-2.97,4.08-.53.19-1.05.38-1.57.57-1.29-1.67-2.58-3.35-3.87-5.02,1.92-.95,3.85-1.89,5.77-2.84Z"/>
  <path class="cls-19" d="M94.29,48.28c-1.96.72-3.88,1.58-5.89,2.11-1.75.47-3.59.58-5.39.84-2.1-3.37-3.25-1.74-4.81.65-5.69,8.73-15.86,11.67-25.46,7.56,5.72-5.39,11.43-10.79,17.15-16.18.64-.07,1.29-.14,1.93-.21,1.68-.26,3.36-.52,5.04-.78,4.4-.23,2.84-3.62,3.16-6.01,1.26-.35,2.52-.7,3.78-1.05l10.63,9.04c-.05,1.34-.11,2.69-.16,4.03Z"/>
  <path class="cls-20" d="M56.87,65.08c.28,2.53.56,5.06.8,7.21,2.42.93,4.8,1.84,7.17,2.75-7.31.68-14.61,1.37-21.92,2.05-.2-4.51-3.32-5.52-7-5.87,2.01-2.64,4.02-5.29,6.03-7.93,1.05-1.18,2.09-2.36,3.14-3.55,3.93,1.78,7.86,3.55,11.79,5.33Z"/>
  <path class="cls-17" d="M45.09,59.75c-1.05,1.18-2.09,2.36-3.14,3.55-2.39-2.14-4.48-2.6-6.95.22-1.93,2.2-4.52,3.81-6.82,5.68,0-3,0-6,0-8.99.89-3.41,1.78-6.81,2.71-10.37,2.46.42,5.32.9,8.18,1.38,2.01,2.84,4.01,5.69,6.02,8.53Z"/>
  <path class="cls-15" d="M39.07,51.22c-2.86-.48-5.72-.97-8.18-1.38-.93,3.55-1.82,6.96-2.71,10.37.02-5.64.05-11.28.07-16.91,1.23-.68,2.46-1.37,3.68-2.05,1.02.15,2.07.52,3.05.39,2.55-.34,5.07-.91,7.6-1.38.78,1.03,1.56,2.06,2.35,3.09-.74,2.09-1.48,4.19-2.22,6.28-1.21.53-2.43,1.07-3.64,1.6Z"/>
  <path class="cls-24" d="M31.94,41.24c-1.23.68-2.46,1.37-3.68,2.05.7-1.37,1.1-3.05,2.15-4.05,9.25-8.84,18.67-17.5,27.91-26.35,2.49-2.39,4.33-2.36,6.63.15,2.91,3.18,6.07,6.12,9.12,9.17-.74.34-1.47.69-2.21,1.03-2.29-1.38-4.58-2.75-6.87-4.13-1.16-1.68-2.31-3.36-4.06-5.89-10.07,9.74-19.53,18.89-28.98,28.03Z"/>
  <path class="cls-4" d="M35.92,71.23c3.68.34,6.8,1.36,7,5.87-4.82,2.72-9.65,5.43-14.76,8.32,0-2.79,0-5.51,0-8.22,2.59-1.99,5.17-3.97,7.76-5.96Z"/>
  <path class="cls-24" d="M35.92,71.23c-2.59,1.99-5.17,3.97-7.76,5.96,0-2.66.01-5.33.02-7.99,2.3-1.87,4.89-3.48,6.82-5.68,2.47-2.81,4.57-2.36,6.95-.22-2.01,2.64-4.02,5.29-6.03,7.93Z"/>
  <path class="cls-4" d="M71.85,23.22c.73-.34,1.47-.69,2.21-1.03,6.81,6.55,13.64,13.08,20.37,19.71.4.39.03,1.55.02,2.35-3.55-3.01-7.09-6.03-10.64-9.04-3.97-3.67-7.94-7.34-11.91-11.01-.01-.33-.03-.65-.05-.98Z"/>
  <path class="cls-25" d="M67,74.28c.78-.42,1.52-1.1,2.33-1.21,3.75-.49,5.39-2.6,6.49-6.21.66-2.16,3.3-3.71,5.05-5.54-1.75,3.97-3.5,7.94-5.71,12.96h-8.15Z"/>
  <path class="cls-21" d="M19.93,95.28c.03-.32.06-.64.09-.96-.03.32-.06.64-.09.96Z"/>
  <path class="cls-18" d="M39.07,51.22c1.21-.53,2.43-1.07,3.64-1.6,1.38,1.89,2.76,3.79,4.14,5.68,1.96,1.39,3.92,2.77,5.88,4.16,9.6,4.11,19.78,1.18,25.46-7.56,1.56-2.39,2.71-4.02,4.81-.65-5.39,10.91-14.58,14.62-26.14,13.84-3.93-1.78-7.86-3.55-11.79-5.33-2-2.84-4.01-5.69-6.01-8.53Z"/>
  <path class="cls-3" d="M95.68,64.26c1.31,1.9,3.69,3.84,3.61,5.67-.08,1.78-2.7,3.44-4.2,5.15-1.78-1.6-4.6-2.96-5.01-4.86-.36-1.65,2-3.89,3.16-5.87.81-.03,1.63-.06,2.44-.09Z"/>
  <path class="cls-17" d="M46.86,55.29c-1.38-1.89-2.76-3.79-4.14-5.68.74-2.09,1.48-4.19,2.22-6.28.1-.37.2-.74.3-1.1,4.44,3.94,6.52.57,8.6-2.8.36-.73.72-1.47,1.09-2.2.88-.39,1.9-.6,2.62-1.18,4.82-3.9,9.58-7.89,14.36-11.84,3.97,3.67,7.94,7.34,11.91,11.01-1.26.35-2.52.7-3.78,1.05-1.94-2.87-4.35-5.2-8.06-3.93-3.59,1.23-4.52,4.36-4.26,7.91-2.04.92-4.35,1.48-6.07,2.82-5.05,3.91-9.87,8.13-14.78,12.23Z"/>
  <path class="cls-22" d="M46.86,55.29c4.91-4.1,9.73-8.32,14.78-12.23,1.72-1.33,4.03-1.9,6.07-2.82.73,1.01,1.45,2.02,2.18,3.02-5.72,5.39-11.43,10.79-17.15,16.18-1.96-1.39-3.92-2.77-5.88-4.16Z"/>
  <path class="cls-8" d="M69.89,43.27c-.73-1.01-1.45-2.02-2.18-3.02-.26-3.55.66-6.68,4.26-7.91,3.71-1.27,6.12,1.06,8.06,3.93-.33,2.39,1.23,5.77-3.16,6.01,1.27-2.44,2.36-4.87-1.23-7.05-.75,3.64-2.36,4.17-4.73.15-.31.43-.63.86-.94,1.29.62,2.13,1.24,4.26,1.87,6.4-.64.07-1.29.14-1.93.21Z"/>
  <path class="cls-2" d="M71.82,43.06c-.62-2.13-1.24-4.26-1.87-6.4.31-.43.63-.86.94-1.29,2.37,4.03,3.98,3.49,4.73-.15,3.59,2.19,2.5,4.61,1.23,7.05-1.68.26-3.36.52-5.04.78Z"/>
  <path class="cls-6" d="M31.94,41.24c9.45-9.15,18.91-18.29,28.98-28.03,1.75,2.53,2.9,4.21,4.06,5.89-3.36,2.71-6.77,5.36-10.07,8.14-1.76,1.49-3.34,3.19-5,4.8-5.77.63-6.88,1.87-7.32,8.21-2.53.48-5.05,1.04-7.6,1.38-.98.13-2.03-.25-3.05-.39Z"/>
  <path class="cls-8" d="M42.59,40.25c.44-6.34,1.55-7.58,7.32-8.21,1.67,1.73,3.34,3.46,5.01,5.19-.36.73-.72,1.47-1.09,2.2-.97-1.4-1.95-2.8-3.54-5.09-.44,5.48-3.03,3.06-5.56,1.9.21,2.46.35,4.22.5,5.98-.1.37-.2.74-.3,1.1-.78-1.03-1.56-2.06-2.35-3.09Z"/>
  <path class="cls-15" d="M54.92,37.23c-1.67-1.73-3.34-3.46-5.01-5.19,1.66-1.61,3.24-3.31,5-4.8,3.3-2.78,6.7-5.44,10.07-8.14,2.29,1.37,4.58,2.75,6.87,4.13.02.33.04.65.05.98-4.78,3.96-9.54,7.94-14.36,11.84-.72.58-1.74.8-2.62,1.18Z"/>
  <path class="cls-2" d="M45.24,42.23c-.15-1.76-.29-3.52-.5-5.98,2.53,1.16,5.12,3.58,5.56-1.9,1.59,2.29,2.56,3.69,3.54,5.09-2.08,3.36-4.16,6.73-8.6,2.8Z"/>
</svg>